# xmcd
#
# Track frame offsets: 
#        150
#        18525
#        31026
#        51100
#        64659
#        79257
#        95921
#        115287
#        137971
#        151195
#
# Disc length: 2319 seconds
#
# Revision: 0
# Processed by: cddbd v1.5.2PL0 Copyright (c) Steve Scherf et al.
# Submitted via: ExactAudioCopy v1.3
#
DISCID=81090d0a
DTITLE=Jorge Galemire - Perfume
DYEAR=2004
DGENRE=
TTITLE0=Casa en el Desierto
TTITLE1=Otra Vuelta Mas
TTITLE2=Perfume
TTITLE3=Palabras Cruzadas
TTITLE4=Icaro
TTITLE5=Va Pensando
TTITLE6=Y Todo Se Fue
TTITLE7=79
TTITLE8=Tus Brazos
TTITLE9=Lana Turner
EXTD=
EXTT0=
EXTT1=
EXTT2=
EXTT3=
EXTT4=
EXTT5=
EXTT6=
EXTT7=
EXTT8=
EXTT9=
PLAYORDER=
